<svg xmlns="http://www.w3.org/2000/svg" width="430" height="430" fill="none" viewBox="0 0 430 430"><path fill="#8930e8" d="M348.43 135.44v263.39c0 1.66-1.34 3-3 3H84.57c-1.66 0-3-1.34-3-3V31.69c0-1.66 1.34-3 3-3h157.12z"/><path fill="#8930e8" d="M244.69 135.44h103.75L241.69 28.69v103.75c0 1.66 1.34 3 3 3" style="mix-blend-mode:multiply"/><path stroke="#3a3347" stroke-linecap="round" stroke-linejoin="round" stroke-width="7" d="M134.94 295.56h160.12m-53.37 53.37h53.37m-160.12 0H215"/><path fill="#fff" d="m256.331 179.56-5.6 34.72c-.01.1-.03.19-.05.28a47.6 47.6 0 0 1-16.62 26.03l-17.2 13.49c-.55.43-1.21.64-1.86.64s-1.3-.22-1.84-.63l-17.21-13.5a47.8 47.8 0 0 1-11.47-13.25c-.02-.04-.05-.08-.07-.12-.27-.47-.54-.95-.79-1.43a45 45 0 0 1-2.54-5.58c-.02-.03-.03-.07-.04-.1-.21-.56-.42-1.13-.6-1.7a3 3 0 0 1-.06-.17c-.16-.48-.31-.97-.45-1.46-.06-.2-.12-.4-.17-.59-.13-.43-.24-.87-.35-1.31-.04-.15-.07-.31-.11-.46l-5.62-34.87a2.98 2.98 0 0 1 2.29-3.39c.12-.03.24-.06.37-.09.29-.07.6-.14.92-.21.25-.05.5-.11.77-.18.92-.22 1.94-.46 3.04-.73q.825-.195 1.71-.42c.47-.13.96-.25 1.45-.37.31-.08.62-.16.94-.24q.345-.105.69-.18c.21-.06.43-.11.65-.17.22-.07.43-.12.65-.17.41-.11.82-.23 1.24-.34.25-.07.5-.14.75-.2.45-.13.9-.26 1.36-.38.05-.02.09-.03.14-.04.36-.11.72-.21 1.09-.31 4.4-1.27 8.98-2.72 12.95-4.26.39-.15.77-.3 1.14-.46.06-.02.13-.05.2-.08.36-.15.71-.3 1.06-.44 1.51-.65 2.89-1.31 4.09-1.98.13-.07.26-.14.39-.22a23 23 0 0 0 1.73-1.09c.51-.36 1.1-.55 1.7-.55s1.2.18 1.71.55c7.69 5.47 29.6 10.8 37.33 12.56 1.54.35 2.54 1.84 2.29 3.4"/><path fill="#8930e8" d="M215.001 163.05v91.67c-.65 0-1.3-.22-1.84-.63l-17.21-13.5a47.8 47.8 0 0 1-11.47-13.25c-.02-.04-.05-.08-.07-.12-.27-.47-.54-.95-.79-1.43a45 45 0 0 1-2.54-5.58c-.02-.03-.03-.07-.04-.1-.21-.56-.42-1.13-.6-1.7a3 3 0 0 1-.06-.17c-.16-.48-.31-.97-.45-1.46-.06-.2-.12-.4-.17-.59-.13-.43-.24-.87-.35-1.31-.04-.15-.07-.31-.11-.46l-5.62-34.87c-.15-.94.15-1.86.77-2.52.39-.43.91-.74 1.52-.88.12-.03.24-.05.37-.08.29-.07.6-.14.92-.21.25-.06.5-.12.77-.18.92-.22 1.94-.46 3.04-.73q.825-.195 1.71-.42c.47-.13.96-.25 1.45-.37.31-.08.62-.16.94-.24q.345-.105.69-.18c.21-.06.43-.11.65-.17.22-.07.43-.12.65-.17.41-.11.82-.23 1.24-.34.25-.07.5-.14.75-.2.45-.13.9-.26 1.36-.38.05-.02.09-.03.14-.04.36-.11.72-.21 1.09-.31 4.4-1.27 8.98-2.72 12.95-4.26.39-.15.77-.3 1.14-.46.06-.02.13-.05.2-.08.36-.15.71-.3 1.06-.44 1.51-.65 2.89-1.31 4.09-1.98.13-.07.26-.14.39-.22a23 23 0 0 0 1.73-1.09c.51-.36 1.1-.55 1.7-.55" opacity=".5" style="mix-blend-mode:multiply"/></svg>